<?xml version="1.0" encoding="UTF-8" standalone="no"?>
<!DOCTYPE svg PUBLIC "-//W3C//DTD SVG 1.1//EN"
 "http://www.w3.org/Graphics/SVG/1.1/DTD/svg11.dtd">
<!-- Generated by graphviz version 2.40.1 (20161225.0304)
 -->
<!-- Title: state transitions Pages: 1 -->
<svg width="606pt" height="373pt"
 viewBox="0.00 0.00 605.58 373.00" xmlns="http://www.w3.org/2000/svg" xmlns:xlink="http://www.w3.org/1999/xlink">
<g id="graph0" class="graph" transform="scale(1 1) rotate(0) translate(4 369)">
<title>state transitions</title>
<polygon fill="#ffffff" stroke="transparent" points="-4,4 -4,-369 601.577,-369 601.577,4 -4,4"/>
<g id="clust1" class="cluster">
<title>cluster_failed</title>
<path fill="none" stroke="#000000" stroke-width="2" d="M20,-8C20,-8 243,-8 243,-8 249,-8 255,-14 255,-20 255,-20 255,-345 255,-345 255,-351 249,-357 243,-357 243,-357 20,-357 20,-357 14,-357 8,-351 8,-345 8,-345 8,-20 8,-20 8,-14 14,-8 20,-8"/>
<text text-anchor="start" x="104.3226" y="-338.2" font-family="Helvetica,sans-Serif" font-size="12.00" fill="#000000">failed auth</text>
</g>
<!-- initial -->
<g id="node1" class="node">
<title>initial</title>
<ellipse fill="#000000" stroke="#000000" stroke-width="2" cx="345" cy="-262" rx="5.5" ry="5.5"/>
</g>
<!-- waiting -->
<g id="node2" class="node">
<title>waiting</title>
<polygon fill="transparent" stroke="transparent" stroke-width="2" points="399.5,-216 340.5,-216 340.5,-180 399.5,-180 399.5,-216"/>
<text text-anchor="start" x="351.8322" y="-194.2" font-family="Helvetica,sans-Serif" font-size="12.00" fill="#000000">waiting</text>
<path fill="none" stroke="#000000" stroke-width="2" d="M352.8333,-181C352.8333,-181 387.1667,-181 387.1667,-181 392.8333,-181 398.5,-186.6667 398.5,-192.3333 398.5,-192.3333 398.5,-203.6667 398.5,-203.6667 398.5,-209.3333 392.8333,-215 387.1667,-215 387.1667,-215 352.8333,-215 352.8333,-215 347.1667,-215 341.5,-209.3333 341.5,-203.6667 341.5,-203.6667 341.5,-192.3333 341.5,-192.3333 341.5,-186.6667 347.1667,-181 352.8333,-181"/>
</g>
<!-- initial&#45;&gt;waiting -->
<g id="edge2" class="edge">
<title>initial&#45;&gt;waiting</title>
<path fill="none" stroke="#000000" d="M347.1315,-256.5434C349.8252,-249.6475 354.6584,-237.2746 359.1898,-225.6742"/>
<polygon fill="#000000" stroke="#000000" points="362.4931,-226.8369 362.8715,-216.2488 355.9729,-224.2899 362.4931,-226.8369"/>
<text text-anchor="middle" x="360.3895" y="-227" font-family="Helvetica,sans-Serif" font-size="10.00" fill="#000000"> </text>
</g>
<!-- failed -->
<!-- waiting&#45;&gt;failed -->
<g id="edge3" class="edge">
<title>waiting&#45;&gt;failed</title>
<path fill="none" stroke="#000000" d="M376.4381,-216.0267C383.8454,-236.7672 395,-268 395,-268 395,-268 313.8243,-290.1167 264.6636,-303.5108"/>
<polygon fill="#000000" stroke="#000000" points="263.7242,-300.1391 254.9959,-306.1448 265.5643,-306.8929 263.7242,-300.1391"/>
<text text-anchor="start" x="395" y="-259" font-family="Helvetica,sans-Serif" font-size="10.00" fill="#000000">bad password &#160;&#160;</text>
</g>
<!-- locked -->
<g id="node3" class="node">
<title>locked</title>
<polygon fill="transparent" stroke="transparent" stroke-width="2" points="550,-280 494,-280 494,-244 550,-244 550,-280"/>
<text text-anchor="start" x="504.6624" y="-258.2" font-family="Helvetica,sans-Serif" font-size="12.00" fill="#000000">locked</text>
<path fill="none" stroke="#000000" stroke-width="2" d="M506.3333,-245C506.3333,-245 537.6667,-245 537.6667,-245 543.3333,-245 549,-250.6667 549,-256.3333 549,-256.3333 549,-267.6667 549,-267.6667 549,-273.3333 543.3333,-279 537.6667,-279 537.6667,-279 506.3333,-279 506.3333,-279 500.6667,-279 495,-273.3333 495,-267.6667 495,-267.6667 495,-256.3333 495,-256.3333 495,-250.6667 500.6667,-245 506.3333,-245"/>
</g>
<!-- locked&#45;&gt;waiting -->
<g id="edge8" class="edge">
<title>locked&#45;&gt;waiting</title>
<path fill="none" stroke="#000000" d="M493.7662,-250.1121C469.9095,-240.0672 435.4927,-225.5759 409.0053,-214.4233"/>
<polygon fill="#000000" stroke="#000000" points="410.2143,-211.1348 399.6397,-210.4799 407.4979,-217.5862 410.2143,-211.1348"/>
<text text-anchor="start" x="433" y="-227" font-family="Helvetica,sans-Serif" font-size="10.00" fill="#000000">password reset &#160;&#160;</text>
</g>
<!-- ]waiting -->
<g id="node4" class="node">
<title>]waiting</title>
<polygon fill="#000000" stroke="#000000" stroke-width="2" points="317,-265.5 263,-265.5 263,-258.5 317,-258.5 317,-265.5"/>
<text text-anchor="middle" x="290" y="-258.4" font-family="Helvetica,sans-Serif" font-size="12.00" fill="#000000"> </text>
</g>
<!-- ]waiting&#45;&gt;waiting -->
<g id="edge7" class="edge">
<title>]waiting&#45;&gt;waiting</title>
<path fill="none" stroke="#000000" d="M294.7648,-258.1882C303.437,-251.2504 322.4517,-236.0386 339.1943,-222.6446"/>
<polygon fill="#000000" stroke="#000000" points="341.5533,-225.2396 347.1756,-216.2595 337.1804,-219.7735 341.5533,-225.2396"/>
<text text-anchor="middle" x="338.3895" y="-227" font-family="Helvetica,sans-Serif" font-size="10.00" fill="#000000"> </text>
</g>
<!-- failed&#45;&gt;]waiting -->
<g id="edge4" class="edge">
<title>failed&#45;&gt;]waiting</title>
<path fill="none" stroke="#000000" d="M254.9953,-291.0764C262.9806,-284.4435 271.3264,-277.5111 277.8652,-272.0797"/>
<polygon fill="#000000" stroke="#000000" points="280.2151,-274.6778 285.6711,-265.5958 275.7423,-269.2931 280.2151,-274.6778"/>
<text text-anchor="start" x="276" y="-291" font-family="Helvetica,sans-Serif" font-size="10.00" fill="#000000">login succeeded &#160;&#160;</text>
</g>
<!-- failed&#45;&gt;]waiting -->
<g id="edge5" class="edge">
<title>failed&#45;&gt;]waiting</title>
<path fill="none" stroke="#000000" d="M254.9953,-291.0764C262.9806,-284.4435 271.3264,-277.5111 277.8652,-272.0797"/>
<polygon fill="#000000" stroke="#000000" points="280.2151,-274.6778 285.6711,-265.5958 275.7423,-269.2931 280.2151,-274.6778"/>
<text text-anchor="start" x="107" y="-291" font-family="Helvetica,sans-Serif" font-size="10.00" fill="#000000">password reset &#160;&#160;</text>
</g>
<!-- failed&#45;&gt;]waiting -->
<g id="edge6" class="edge">
<title>failed&#45;&gt;]waiting</title>
<path fill="none" stroke="#000000" d="M254.9953,-291.0764C262.9806,-284.4435 271.3264,-277.5111 277.8652,-272.0797"/>
<polygon fill="#000000" stroke="#000000" points="280.2151,-274.6778 285.6711,-265.5958 275.7423,-269.2931 280.2151,-274.6778"/>
<text text-anchor="start" x="205" y="-291" font-family="Helvetica,sans-Serif" font-size="10.00" fill="#000000">after 2 secs &#160;&#160;</text>
</g>
<!-- failed.initial -->
<g id="node6" class="node">
<title>failed.initial</title>
<ellipse fill="#000000" stroke="#000000" stroke-width="2" cx="62" cy="-313.5" rx="5.5" ry="5.5"/>
</g>
<!-- primed -->
<g id="node7" class="node">
<title>primed</title>
<polygon fill="transparent" stroke="transparent" stroke-width="2" points="91,-216 33,-216 33,-180 91,-180 91,-216"/>
<text text-anchor="start" x="43.6676" y="-194.2" font-family="Helvetica,sans-Serif" font-size="12.00" fill="#000000">primed</text>
<path fill="none" stroke="#000000" stroke-width="2" d="M45.3333,-181C45.3333,-181 78.6667,-181 78.6667,-181 84.3333,-181 90,-186.6667 90,-192.3333 90,-192.3333 90,-203.6667 90,-203.6667 90,-209.3333 84.3333,-215 78.6667,-215 78.6667,-215 45.3333,-215 45.3333,-215 39.6667,-215 34,-209.3333 34,-203.6667 34,-203.6667 34,-192.3333 34,-192.3333 34,-186.6667 39.6667,-181 45.3333,-181"/>
</g>
<!-- failed.initial&#45;&gt;primed -->
<g id="edge9" class="edge">
<title>failed.initial&#45;&gt;primed</title>
<path fill="none" stroke="#000000" d="M62,-307.9208C62,-295.771 62,-268 62,-268 62,-268 62,-245.5586 62,-226.0888"/>
<polygon fill="#000000" stroke="#000000" points="65.5001,-226.0267 62,-216.0267 58.5001,-226.0268 65.5001,-226.0267"/>
<text text-anchor="middle" x="63.3895" y="-259" font-family="Helvetica,sans-Serif" font-size="10.00" fill="#000000"> </text>
</g>
<!-- ^warn? -->
<g id="node9" class="node">
<title>^warn?</title>
<polygon fill="transparent" stroke="#000000" stroke-width="2" points="112,-123 99.5,-110.5 112,-98 124.5,-110.5 112,-123"/>
<text text-anchor="middle" x="112" y="-107.5" font-family="Helvetica,sans-Serif" font-size="10.00" fill="#000000"> </text>
</g>
<!-- primed&#45;&gt;^warn? -->
<g id="edge10" class="edge">
<title>primed&#45;&gt;^warn?</title>
<path fill="none" stroke="#000000" d="M49.4377,-179.68C43.6309,-171.2117 38,-163 38,-163 38,-163 74.6862,-136.9727 96.3969,-121.5697"/>
<polygon fill="#000000" stroke="#000000" points="98.5033,-124.3667 104.6341,-115.7258 94.4529,-118.6576 98.5033,-124.3667"/>
<text text-anchor="start" x="38" y="-154" font-family="Helvetica,sans-Serif" font-size="10.00" fill="#000000">bad password / count&#45;&#45; &#160;&#160;</text>
</g>
<!-- warned -->
<g id="node8" class="node">
<title>warned</title>
<polygon fill="transparent" stroke="transparent" stroke-width="2" points="194.5,-52 133.5,-52 133.5,-16 194.5,-16 194.5,-52"/>
<text text-anchor="start" x="144.8296" y="-30.2" font-family="Helvetica,sans-Serif" font-size="12.00" fill="#000000">warned</text>
<path fill="none" stroke="#000000" stroke-width="2" d="M145.8333,-17C145.8333,-17 182.1667,-17 182.1667,-17 187.8333,-17 193.5,-22.6667 193.5,-28.3333 193.5,-28.3333 193.5,-39.6667 193.5,-39.6667 193.5,-45.3333 187.8333,-51 182.1667,-51 182.1667,-51 145.8333,-51 145.8333,-51 140.1667,-51 134.5,-45.3333 134.5,-39.6667 134.5,-39.6667 134.5,-28.3333 134.5,-28.3333 134.5,-22.6667 140.1667,-17 145.8333,-17"/>
</g>
<!-- warned&#45;&gt;locked -->
<g id="edge13" class="edge">
<title>warned&#45;&gt;locked</title>
<path fill="none" stroke="#000000" d="M194.6363,-43.1993C282.1508,-69.4778 527,-143 527,-143 527,-143 524.666,-198.5492 523.1873,-233.7421"/>
<polygon fill="#000000" stroke="#000000" points="519.6824,-233.7883 522.7594,-243.9265 526.6762,-234.0822 519.6824,-233.7883"/>
<text text-anchor="start" x="527" y="-134" font-family="Helvetica,sans-Serif" font-size="10.00" fill="#000000">bad password &#160;&#160;</text>
</g>
<!-- ^warn?&#45;&gt;primed -->
<g id="edge11" class="edge">
<title>^warn?&#45;&gt;primed</title>
<path fill="none" stroke="#000000" d="M119.6707,-115.5339C139.6941,-128.6742 192,-163 192,-163 192,-163 139.3357,-177.1788 101.047,-187.4874"/>
<polygon fill="#000000" stroke="#000000" points="99.9208,-184.1659 91.1745,-190.1453 101.7406,-190.9252 99.9208,-184.1659"/>
<text text-anchor="start" x="192" y="-154" font-family="Helvetica,sans-Serif" font-size="10.00" fill="#000000">[count &gt; 0] &#160;&#160;</text>
</g>
<!-- ^warn?&#45;&gt;warned -->
<g id="edge12" class="edge">
<title>^warn?&#45;&gt;warned</title>
<path fill="none" stroke="#000000" d="M112,-97.8181C112,-89.8226 112,-81 112,-81 112,-81 123.919,-70.2271 136.3443,-58.9965"/>
<polygon fill="#000000" stroke="#000000" points="138.9723,-61.339 144.0442,-52.037 134.2785,-56.1459 138.9723,-61.339"/>
<text text-anchor="start" x="112" y="-72" font-family="Helvetica,sans-Serif" font-size="10.00" fill="#000000">[count == 0] / warn customer &#160;&#160;</text>
</g>
<!-- ^warn?&#45;&gt;^warn? -->
<g id="edge1" class="edge">
<title>^warn?&#45;&gt;^warn?</title>
<path fill="none" stroke="transparent" d="M121.889,-113.253C133.2916,-115.2067 146.5,-114.2891 146.5,-110.5 146.5,-107.8062 139.824,-106.5637 131.8672,-106.7725"/>
<polygon fill="transparent" stroke="transparent" points="131.5014,-103.2915 121.889,-107.747 132.1818,-110.2584 131.5014,-103.2915"/>
</g>
</g>
</svg>
